# xmcd
#
# Track frame offsets:
# 182
# 12590
# 28245
# 43315
# 60560
# 78970
#
# Disc length: 1266 seconds
#
#
# Revision: 1
# Processed by: cddbd v1.5.1PL0 Copyright (c) Steve Scherf et al.
# Submitted via: FreeRIP 2.931 
#
DISCID=4a04f006
DTITLE=Neal McCoy - Favorite Hits
DYEAR=2000
DGENRE=Country
TTITLE0=Wink
TTITLE1=If You Can't Be Good, Be Good At It
TTITLE2=At This Moment
TTITLE3=No Doubt About It
TTITLE4=Heaven
TTITLE5=The City Put The Country Back In Me
EXTD=YEAR: 2000
EXTT0=
EXTT1=
EXTT2=
EXTT3=
EXTT4=
EXTT5=
PLAYORDER=
